<svg width="204" height="204" viewBox="0 0 204 204" fill="none" xmlns="http://www.w3.org/2000/svg">
<path fill-rule="evenodd" clip-rule="evenodd" d="M55.879 9.01214C56.5146 7.47607 57.5321 6.12788 58.8351 5.09549C60.138 4.0631 61.6831 3.38076 63.3238 3.11322C64.9645 2.84568 66.6464 3.0018 68.2098 3.56678C69.7732 4.13176 71.1664 5.08686 72.257 6.34145L127.993 70.4733L161.924 84.4915C169.098 87.4555 174.801 93.1481 177.778 100.317C180.755 107.486 180.763 115.544 177.799 122.718C174.835 129.893 169.142 135.596 161.973 138.573C154.804 141.55 146.746 141.557 139.572 138.593L137.047 137.55L101.275 178.887C99.9344 180.436 98.1405 181.524 96.1473 181.996C94.154 182.469 92.0626 182.302 90.1696 181.519L81.1526 177.794C78.7612 176.806 76.8602 174.908 75.8678 172.519C74.8754 170.129 74.873 167.443 75.861 165.052L92.1851 125.539L20.893 130.667C19.2349 130.786 17.5739 130.48 16.0676 129.776C14.5613 129.073 13.2597 127.997 12.2862 126.649C11.3128 125.302 10.6998 123.728 10.5055 122.077C10.3111 120.426 10.5419 118.752 11.1758 117.216L55.879 9.01214Z" fill="#8ABDE8" fill-opacity="0.1"/>
</svg>
