<svg width="84" height="88" viewBox="0 0 84 88" fill="none" xmlns="http://www.w3.org/2000/svg">
<g clip-path="url(#clip0)">
<path d="M31.872 73.9513C28.4291 73.9513 25.1225 73.3813 22.0497 72.3343C22.1572 69.2437 22.2264 66.6652 22.2166 65.354C22.2584 65.3454 22.2796 65.3406 22.2796 65.3406C22.2796 65.3406 22.1243 62.7682 22.0709 61.0567C22.0669 60.9324 22.0657 60.7908 22.0663 60.6345C22.1054 60.6483 22.1424 60.6596 22.1763 60.6679C22.1873 60.6705 22.1998 60.6719 22.2137 60.6719C22.8242 60.6719 26.0442 58.1291 26.0442 58.1291C26.0442 58.1291 26.5474 58.2416 26.7851 58.2762C26.9998 58.309 27.4082 58.3218 27.6695 58.3218C27.7716 58.3218 27.8515 58.3198 27.8883 58.3164C28.0363 58.3019 29.0668 58.0539 29.3703 57.9472C29.446 57.9205 29.3377 57.6772 29.2073 57.6772C29.2073 57.6772 29.7577 57.5698 29.9629 57.5115C30.1515 57.4578 30.0199 57.2564 29.9444 57.2276C29.9444 57.2276 30.0816 57.2103 30.2818 57.1544C30.3929 57.1234 30.3001 56.7446 30.0452 56.7446C30.0265 56.7446 30.007 56.7466 29.9864 56.751C29.9398 56.7608 29.8467 56.7741 29.8467 56.7741C29.8467 56.7741 29.823 56.5001 29.619 56.5001C29.6132 56.5001 29.6069 56.5003 29.6007 56.5009C29.014 56.5458 28.2694 56.5607 28.2694 56.5607C28.2694 56.5607 28.6291 56.5072 28.8212 56.4452C29.036 56.376 28.9705 56.1995 28.7385 56.0979C28.647 56.0575 28.5397 56.0452 28.4438 56.0452C28.2989 56.0452 28.1798 56.0732 28.1798 56.0732C28.1798 56.0732 27.8365 56.0988 27.6681 56.0988C27.6504 56.0988 27.6346 56.0986 27.6213 56.0979C27.5248 56.0933 27.4186 56.0887 27.3034 56.0887C26.9142 56.0887 26.4197 56.142 25.8334 56.4337C25.6667 56.5166 23.5856 57.505 23.4116 57.6871C23.4099 57.6887 23.4084 57.6895 23.407 57.6895C23.3812 57.6895 23.3785 57.4332 23.3658 57.0407C23.402 57.0186 23.4213 57.0061 23.4213 57.0061C23.4213 57.0061 23.5467 51.5886 21.3814 49.2808C21.3319 49.2273 21.2891 49.1846 21.2548 49.1521C21.2278 49.1257 21.2005 49.0999 21.1727 49.0746L21.1681 49.0702H21.1677C21.1675 49.07 21.1677 49.07 21.1675 49.07C20.7514 48.6028 18.5637 48.1113 18.5637 48.1113L15.0426 48.1958C15.0426 48.1958 11.5414 48.7525 11.4344 49.3703C11.3986 49.5778 11.5246 50.7181 11.708 52.2211L11.7071 52.2217C12.0691 55.1983 12.659 59.6004 12.659 60.9895C12.659 61.2032 12.6565 61.4171 12.6494 61.6263C12.6505 61.6241 12.6517 61.6219 12.6528 61.6197C12.6114 63.4621 12.4074 65.0617 12.4074 65.0617C12.4074 65.0617 12.432 65.0684 12.4783 65.0802C12.407 65.6387 12.3388 66.1894 12.2831 66.7704C6.16551 61.5295 2.30966 53.8741 2.30966 45.3464C2.30966 29.5484 15.5451 16.7416 31.872 16.7416C36.4839 16.7416 40.8504 17.764 44.7402 19.5866C43.839 19.5325 42.914 19.5055 41.9648 19.5055C41.454 19.5055 40.9498 19.5137 40.4512 19.5302C39.9418 19.5137 39.4247 19.5055 38.9009 19.5055C31.5595 19.5055 25.4691 21.2085 20.799 24.5673C15.9246 28.0727 13.4094 32.7545 13.3233 38.4824L13.2888 40.7892H28.4781H31.542V38.5154C31.542 36.4201 32.3523 34.8655 34.0926 33.6222C35.6957 32.4765 37.8175 31.8045 40.4144 31.6174C43.0007 31.8097 44.9955 32.5145 46.3563 33.7188C47.9348 35.118 48.7021 37.0588 48.7021 39.6525C48.7021 42.3794 47.3984 44.9179 44.7177 47.4116L37.3563 53.6246L37.3066 53.6676C34.1294 56.507 32.0585 59.0773 30.9755 61.5265C29.9032 63.9516 29.3425 67.076 29.261 71.0779L29.2136 73.3968H37.6933C35.8108 73.7605 33.8651 73.9513 31.872 73.9513ZM47.5338 69.6115C47.7801 66.3262 48.8613 63.8383 50.8187 62.0363L56.1649 57.6978C56.1632 57.8376 56.1614 57.9762 56.1593 58.1132C56.1597 58.1132 56.1601 58.1134 56.1605 58.1134C56.1464 59.2966 56.1287 60.3586 56.1092 60.9875C56.1015 61.2334 56.0917 61.4967 56.0809 61.7675C53.8054 64.9028 50.8971 67.5749 47.5338 69.6115Z" fill="#F5F6FA"/>
<path fill-rule="evenodd" clip-rule="evenodd" d="M54.7351 7.47462C54.5453 6.88236 54.2073 6.34842 53.7532 5.92346C53.2991 5.4985 52.744 5.19662 52.1405 5.04647C51.5369 4.89631 50.9051 4.90286 50.3048 5.0655C49.7045 5.22813 49.1557 5.54145 48.7105 5.97573L25.9589 28.1758L12.8769 32.3603C10.1109 33.245 7.80956 35.1924 6.47929 37.7739C5.14902 40.3555 4.89874 43.3597 5.78352 46.1258C6.66829 48.8918 8.61564 51.1931 11.1972 52.5234C13.7787 53.8537 16.7829 54.1039 19.549 53.2192L20.5224 52.9078L32.5907 69.4194C33.0429 70.0381 33.6784 70.4989 34.4071 70.7363C35.1358 70.9736 35.9207 70.9756 36.6505 70.742L40.127 69.63C41.0491 69.335 41.8161 68.6859 42.2596 67.8254C42.703 66.9649 42.7864 65.9635 42.4915 65.0415L37.6186 49.8075L64.043 53.9094C64.6576 54.0047 65.2863 53.9414 65.8695 53.7255C66.4528 53.5095 66.9712 53.1481 67.3755 52.6756C67.7799 52.2031 68.0568 51.635 68.1799 51.0254C68.3031 50.4158 68.2685 49.7849 68.0793 49.1924L54.7351 7.47462Z" fill="#6FA4DD"/>
<path fill-rule="evenodd" clip-rule="evenodd" d="M52.08 7.47462C51.8902 6.88236 51.5522 6.34842 51.0981 5.92346C50.644 5.4985 50.0888 5.19662 49.4853 5.04647C48.8818 4.89631 48.2499 4.90286 47.6496 5.0655C47.0493 5.22813 46.5005 5.54145 46.0554 5.97573L23.3038 28.1758L10.2218 32.3603C7.4557 33.245 5.15441 35.1924 3.82414 37.7739C2.49387 40.3555 2.24359 43.3597 3.12837 46.1258C4.01314 48.8918 5.96049 51.1931 8.54202 52.5234C11.1236 53.8537 14.1278 54.1039 16.8939 53.2192L17.8673 52.9078L29.9356 69.4194C30.3878 70.0381 31.0232 70.4989 31.7519 70.7363C32.4806 70.9736 33.2655 70.9756 33.9954 70.742L37.4719 69.63C38.3939 69.335 39.161 68.6859 39.6044 67.8254C40.0478 66.9649 40.1313 65.9635 39.8363 65.0415L34.9635 49.8075L61.3878 53.9094C62.0024 54.0047 62.6312 53.9414 63.2144 53.7255C63.7976 53.5095 64.316 53.1482 64.7204 52.6756C65.1247 52.2031 65.4016 51.635 65.5248 51.0254C65.648 50.4158 65.6133 49.7849 65.4242 49.1924L52.08 7.47462Z" fill="#8ABDE8"/>
<path d="M27.6393 71.18C27.6393 71.18 27.5252 68.9098 24.2057 67.7009C24.2057 67.7009 24.7195 70.7663 27.6393 71.18Z" fill="#55C38E"/>
<path d="M27.3757 75.1942C27.3757 75.1942 27.031 72.2647 22.6287 70.9695C22.6287 70.9695 23.56 74.8962 27.3757 75.1942Z" fill="#55C38E"/>
<path d="M28.476 81.0004C28.476 81.0004 27.976 77.6036 22.8113 76.2361C22.8113 76.2361 24.0272 80.7745 28.476 81.0004Z" fill="#55C38E"/>
<path d="M32.0822 87.0884C32.0822 87.0884 30.125 83.4184 23.6956 83.8407C23.6956 83.8407 26.9327 88.5341 32.0822 87.0884Z" fill="#55C38E"/>
<path d="M27.6346 71.2232C27.6346 71.2232 28.0889 68.9933 31.5549 68.2644C31.5549 68.2644 30.5856 71.225 27.6346 71.2232Z" fill="#55C38E"/>
<path d="M27.2917 75.2316C27.2917 75.2316 28.0735 72.3819 32.6236 71.7206C32.6236 71.7206 31.1118 75.4741 27.2917 75.2316Z" fill="#55C38E"/>
<path d="M28.3929 80.9742C28.3929 80.9742 27.9519 77.5698 32.5627 74.9357C32.5627 74.9357 32.6236 79.6237 28.3929 80.9742Z" fill="#55C38E"/>
<path d="M31.7988 87.126C31.7988 87.126 30.0773 83.3472 34.4563 78.7719C34.4563 78.7719 36.1963 84.1576 31.7988 87.126Z" fill="#55C38E"/>
<path d="M27.6878 71.1104C27.6878 71.1104 24.4399 84.199 39.307 93.5503" stroke="#55C38E" stroke-width="2.68103" stroke-miterlimit="10" stroke-linecap="round"/>
<path d="M52.182 75.3795C52.182 75.3795 52.6197 73.1467 56.0803 72.3937C56.0803 72.3937 55.133 75.361 52.182 75.3795Z" fill="#55C38E"/>
<path d="M51.7851 79.4283C51.7851 79.4283 52.5459 76.5731 57.0908 75.88C57.0908 75.88 55.6069 79.6442 51.7851 79.4283Z" fill="#55C38E"/>
<path d="M49.9872 84.8977C49.9872 84.8977 51.8144 81.957 57.1219 82.6431C57.1219 82.6431 54.1761 86.3654 49.9872 84.8977Z" fill="#55C38E"/>
<path d="M45.6957 90.5408C45.6957 90.5408 48.7954 87.7019 54.7203 90.1547C54.7203 90.1547 50.0631 93.5505 45.6957 90.5408Z" fill="#55C38E"/>
<path d="M52.1806 75.423C52.1806 75.423 52.0496 73.1536 48.7212 71.9676C48.7212 71.9676 49.2576 75.0296 52.1806 75.423Z" fill="#55C38E"/>
<path d="M51.7868 79.417C51.7868 79.417 51.4202 76.4902 47.0084 75.2256C47.0084 75.2256 47.9688 79.1456 51.7868 79.417Z" fill="#55C38E"/>
<path d="M50.0348 84.9786C50.0348 84.9786 50.9586 81.6659 46.7688 78.4399C46.7688 78.4399 46.038 83.0744 50.0348 84.9786Z" fill="#55C38E"/>
<path d="M45.7818 90.6152C45.7818 90.6152 48.0272 87.1031 44.3451 81.9854C44.3451 81.9854 41.8509 87.0862 45.7818 90.6152Z" fill="#55C38E"/>
<path d="M52.1439 75.3042C52.1439 75.3042 52.6196 86.3006 43.7215 92.0945" stroke="#55C38E" stroke-width="2.68103" stroke-miterlimit="10" stroke-linecap="round"/>
<path d="M9.58718 96.5103C10.591 94.4041 12.3785 88.2243 9.6246 86.9319C7.89756 86.1215 7.39059 87.5093 7.39059 87.5093C7.39059 87.5093 8.63842 80.7495 5.68003 80.735C3.9552 80.7266 3.66436 82.6426 3.66436 82.6426C3.66436 82.6426 2.72685 80.5288 1.57924 79.9142C-0.914506 78.5791 -3.88328 79.9596 -1.58261 83.7361C-0.958855 84.7601 -0.0928078 85.4973 -0.0928078 85.4973C-0.0928078 85.4973 -2.6927 84.5497 -2.94709 86.3489C-3.20145 88.1479 1.72674 91.0053 1.72674 91.0053C1.72674 91.0053 0.251881 91.0598 0.193892 92.7083C0.11559 94.9358 4.86778 96.5103 4.86778 96.5103H9.58718Z" fill="#40AD69"/>
<path d="M0.177643 81.5611C3.41013 86.1469 6.06573 87.5093 8.22729 96.0492" stroke="white" stroke-width="1.05862" stroke-miterlimit="10" stroke-linecap="round"/>
<path d="M11.7797 96.5103C11.6734 93.3793 16.45 86.8738 13.5566 85.2963C11.7423 84.307 11.2304 86.0952 11.2304 86.0952C11.2304 86.0952 15.3172 79.3941 11.4073 78.9451C10.0444 78.7884 9.2541 80.7155 9.2541 80.7155C9.2541 80.7155 9.22125 77.2654 8.12992 75.973C6.34952 73.8648 2.62332 75.0427 3.50242 79.5883C3.98444 82.0811 5.75429 83.068 5.75429 83.068C5.75429 83.068 3.96406 81.7458 3.11006 83.4818C1.96577 85.8077 5.80203 88.8126 5.80203 88.8126C5.80203 88.8126 4.08549 87.5821 2.95127 89.5943C1.41867 92.3134 7.24634 96.5103 7.24634 96.5103H11.7797Z" fill="#55C38E"/>
<path d="M6.60846 78.4757C8.79648 83.8516 9.93669 89.7501 10.4093 95.9814" stroke="white" stroke-width="1.05862" stroke-miterlimit="10" stroke-linecap="round"/>
<path d="M69.2439 96.5103C69.955 93.9679 66.5283 88.9586 69.1901 87.6777C70.8592 86.8746 71.7562 87.696 71.7562 87.696C71.7562 87.696 69.7907 82.6471 73.0524 82.2825C74.1891 82.1554 74.5334 83.1356 74.5334 83.1356C74.5334 83.1356 74.985 81.6402 76.2038 80.702C78.5144 78.9232 81.5253 79.5826 79.9054 83.2736C79.0168 85.2977 78.315 85.5946 78.315 85.5946C78.315 85.5946 79.921 85.2935 80.2674 86.7032C80.7315 88.5919 76.8852 91.7531 76.8852 91.7531C76.8852 91.7531 78.2676 91.879 78.4495 92.8795C78.8521 95.0917 74.0044 96.5103 74.0044 96.5103H69.2439Z" fill="#40AD69"/>
<path d="M78.8521 81.0714C74.4265 84.5481 74.2626 91.6241 72.0211 95.7104" stroke="white" stroke-width="0.966433" stroke-miterlimit="10" stroke-linecap="round"/>
<path d="M67.2433 96.5103C65.6411 93.9605 62.1557 86.4786 64.7106 84.914C66.3128 83.9328 67.2065 85.6131 67.2065 85.6131C67.2065 85.6131 64.1365 77.4291 67.2387 77.4116C69.0474 77.4014 69.8516 79.721 69.8516 79.721C69.8516 79.721 70.4654 77.3203 71.3258 75.8774C73.3058 72.5566 77.9488 73.8829 76.31 79.1537C75.8946 80.4894 74.6469 82.1843 74.6469 82.1843C74.6469 82.1843 77.5303 82.0166 77.4538 84.431C77.381 86.7213 73.3852 88.8751 73.3852 88.8751C73.3852 88.8751 76.042 88.3022 76.5321 90.2979C77.1943 92.995 71.3258 96.5103 71.3258 96.5103H67.2433Z" fill="#55C38E"/>
<path d="M74.1005 77.2016C71.868 84.5213 68.5972 85.6131 68.5511 95.9522" stroke="white" stroke-width="0.966433" stroke-miterlimit="10" stroke-linecap="round"/>
<path d="M40.1279 77.5092C40.1279 77.5092 40.3086 75.9585 42.6379 75.2707C42.6379 75.2707 42.1472 77.3493 40.1279 77.5092Z" fill="#40AD69"/>
<path d="M40.127 80.2707C40.127 80.2707 40.4957 78.2779 43.5706 77.577C43.5706 77.577 42.7549 80.228 40.127 80.2707Z" fill="#40AD69"/>
<path d="M39.1107 84.2024C39.1107 84.2024 39.6068 81.8963 43.2074 81.1778C43.2074 81.1778 42.1692 84.236 39.1107 84.2024Z" fill="#40AD69"/>
<path d="M36.3647 88.2211C36.3647 88.2211 37.8715 85.7894 42.2578 86.3507C42.2578 86.3507 39.8276 89.4296 36.3647 88.2211Z" fill="#40AD69"/>
<path d="M40.1291 77.539C40.1291 77.539 39.9187 75.9917 37.5769 75.3457C37.5769 75.3457 38.1071 77.4153 40.1291 77.539Z" fill="#40AD69"/>
<path d="M40.183 80.2998C40.183 80.2998 39.7761 78.3141 36.6884 77.6683C36.6884 77.6683 37.5546 80.3045 40.183 80.2998Z" fill="#40AD69"/>
<path d="M39.1689 84.188C39.1689 84.188 39.6249 81.8739 36.5847 79.8742C36.5847 79.8742 36.331 83.0837 39.1689 84.188Z" fill="#40AD69"/>
<path d="M36.5573 88.2589C36.5573 88.2589 37.9075 85.7425 35.1141 82.4226C35.1141 82.4226 33.6782 86.039 36.5573 88.2589Z" fill="#40AD69"/>
<path d="M40.0979 77.4593C40.0979 77.4593 41.7315 86.5649 31.1222 92.3429" stroke="#40AD69" stroke-width="1.84072" stroke-miterlimit="10" stroke-linecap="round"/>
<path d="M23.2028 55.1323C23.414 56.3997 23.345 57.7539 23.4115 57.6871C23.5856 57.505 25.6666 56.5166 25.8334 56.4337C26.5935 56.0557 27.199 56.0778 27.6213 56.098C27.7608 56.1044 28.1798 56.0732 28.1798 56.0732C28.1798 56.0732 28.5089 55.9964 28.7384 56.098C28.9705 56.1996 29.036 56.376 28.8212 56.4452C28.6291 56.5072 28.2694 56.5607 28.2694 56.5607C28.2694 56.5607 29.0139 56.5458 29.6007 56.5009C29.8215 56.484 29.8466 56.7741 29.8466 56.7741C29.8466 56.7741 29.9398 56.7609 29.9864 56.751C30.2854 56.6872 30.4012 57.121 30.2818 57.1544C30.0816 57.2103 29.9444 57.2276 29.9444 57.2276C30.0198 57.2564 30.1515 57.4578 29.9629 57.5115C29.7577 57.5698 29.2073 57.6773 29.2073 57.6773C29.3377 57.6773 29.446 57.9205 29.3703 57.9473C29.0667 58.0539 28.0363 58.3019 27.8883 58.3164C27.7571 58.3291 27.0838 58.3217 26.785 58.2762C26.5474 58.2416 26.0442 58.1291 26.0442 58.1291C26.0442 58.1291 22.6768 60.7884 22.1763 60.6679C21.8058 60.5769 21.0926 60.1488 20.9764 59.5095C20.8575 58.8675 20.0588 55.0546 20.0588 55.0546C20.3711 53.1311 22.8834 53.2142 23.2028 55.1323Z" fill="#F49577"/>
<path d="M25.7937 57.162C25.7937 57.162 25.7768 57.7833 25.9872 58.0659" stroke="#DF7D58" stroke-width="0.753483" stroke-miterlimit="10" stroke-linecap="round" stroke-linejoin="round"/>
<path d="M27.7677 56.6271C27.7677 56.6271 27.4353 57.1632 26.4013 57.0922C27.1862 57.2306 27.6825 58.0046 27.6825 58.0046" stroke="#DF7D58" stroke-width="0.753483" stroke-miterlimit="10" stroke-linecap="round" stroke-linejoin="round"/>
<path d="M29.136 57.674L28.0085 57.8308" stroke="#DF7D58" stroke-width="0.753483" stroke-miterlimit="10" stroke-linecap="round" stroke-linejoin="round"/>
<path d="M29.775 57.2103L28.0779 57.4006" stroke="#DF7D58" stroke-width="0.753483" stroke-miterlimit="10" stroke-linecap="round" stroke-linejoin="round"/>
<path d="M29.7057 56.7752L28.1658 56.915" stroke="#DF7D58" stroke-width="0.753483" stroke-miterlimit="10" stroke-linecap="round" stroke-linejoin="round"/>
<path d="M20.0734 41.5984C20.0734 41.5984 20.3857 41.9137 20.4614 42.6132C20.5371 43.3127 19.9736 44.2418 19.9736 44.2418L20.0734 41.5984Z" fill="#222528"/>
<path d="M22.1886 64.562C22.4246 66.7302 21.1482 93.6567 21.1482 93.6567H17.893C17.893 93.6567 16.8723 74.5021 17.0097 71.7071C17.1469 68.9122 16.5226 66.261 16.7064 64.562C16.8902 62.8626 21.7902 60.9041 22.1886 64.562Z" fill="#F03B50"/>
<path d="M17.8335 64.6419C17.8366 74.3774 13.7564 93.6567 13.7564 93.6567H10.4012C10.4012 93.6567 12.0923 71.7234 12.155 68.9185C12.2004 66.9044 12.4351 65.5031 12.6403 63.7979C12.9869 60.9182 17.8323 60.9765 17.8335 64.6419Z" fill="#F03B50"/>
<path d="M22.2092 66.5945C22.0611 66.5151 21.8919 66.4219 21.7204 66.3195C21.4883 66.1833 21.3347 66.127 20.8756 66.127C20.3764 66.127 19.5158 66.1936 17.8007 66.2968C17.8002 66.2968 17.8 66.2968 17.7996 66.2968C17.8065 66.1208 17.8123 65.9473 17.8171 65.7757C17.842 65.7755 17.8668 65.7751 17.8915 65.7747C20.2689 65.7325 21.8825 65.4233 22.2158 65.3542C22.2183 65.689 22.2158 66.1065 22.2092 66.5945Z" fill="#EF2F3F"/>
<path d="M17.096 66.3195C16.9685 66.3195 16.8421 66.3173 16.7173 66.3127C14.6398 66.2306 12.9455 65.5281 12.4521 65.303C12.4612 65.2289 12.4706 65.1549 12.4799 65.0808C12.9207 65.1943 15.2987 65.7767 17.6476 65.7769C17.7041 65.7769 17.7607 65.7765 17.817 65.7757C17.8122 65.9474 17.8064 66.1208 17.7996 66.2968C17.7578 66.299 17.7156 66.3012 17.6713 66.3037C17.4775 66.3143 17.2854 66.3195 17.096 66.3195Z" fill="#EF2F3F"/>
<path d="M21.1675 49.07C23.5548 51.2379 23.4213 57.0061 23.4213 57.0061C23.4213 57.0061 21.2232 58.42 19.9154 57.8682C19.9154 57.8682 18.9263 51.953 19.4484 50.1286C19.7673 49.0145 20.7236 48.6668 21.1675 49.07Z" fill="#17203E"/>
<path d="M21.3815 49.2808C21.3403 49.2368 21.2979 49.1937 21.2548 49.1521C21.2892 49.1847 21.332 49.2273 21.3815 49.2808ZM21.1727 49.0746C21.1713 49.0732 21.1694 49.0716 21.1677 49.0702H21.1681L21.1727 49.0746Z" fill="#98A0B5"/>
<path d="M22.188 57.6318C22.2961 55.703 22.4373 53.5836 22.4398 52.5247C22.4435 50.9344 21.6711 49.6355 21.1677 49.0702C21.1694 49.0716 21.1713 49.0732 21.1727 49.0746V49.0748C21.1848 49.0871 21.2135 49.1122 21.2548 49.1521C21.2979 49.1937 21.3403 49.2368 21.3815 49.2808C21.8512 49.7874 22.9194 51.2691 22.8242 54.5519C22.7922 55.658 22.8009 56.6985 22.7354 57.3855C22.572 57.4664 22.3868 57.5515 22.188 57.6318Z" fill="#131A2E"/>
<path d="M15.0426 48.1958C15.0426 48.1958 11.5414 48.7525 11.4343 49.3703C11.3275 49.9884 12.66 58.8986 12.66 60.9903C12.66 63.0819 12.4074 65.0617 12.4074 65.0617C12.4074 65.0617 15.2126 65.8222 17.8915 65.7747C20.5703 65.7272 22.2796 65.3406 22.2796 65.3406C22.2796 65.3406 22.1243 62.7682 22.0709 61.0567C22.0174 59.3455 22.4353 54.3535 22.4397 52.5247C22.4435 50.9341 21.6708 49.6353 21.1675 49.07C20.7514 48.6028 18.5637 48.1113 18.5637 48.1113L15.0426 48.1958Z" fill="#17203E"/>
<path d="M12.6494 61.6263C12.6565 61.4171 12.659 61.2032 12.659 60.9896C12.659 59.6004 12.0691 55.1983 11.7072 52.2218L11.708 52.2211C12.0714 55.1989 12.66 59.6004 12.66 60.9904C12.66 61.202 12.6573 61.4123 12.6528 61.6197C12.6517 61.6219 12.6505 61.6241 12.6494 61.6263Z" fill="#98A0B5"/>
<path d="M12.6527 61.6197C12.6573 61.4122 12.66 61.202 12.66 60.9903C12.66 59.6004 12.0714 55.1988 11.7079 52.2211L14.4142 50.7028C14.7479 51.7192 14.7479 57.8949 13.3732 60.2983C13.0744 60.8205 12.838 61.2571 12.6527 61.6197Z" fill="#131A2E"/>
<path d="M15.3617 46.9467L15.0426 48.2033C15.0426 48.2033 16.4173 50.4203 18.0404 50.1986C19.6632 49.9769 18.5637 48.1113 18.5637 48.1113L18.6284 47.279L15.6345 45.5623L15.3617 46.9467Z" fill="#DF7D58"/>
<path d="M20.2319 42.1979C20.3163 42.615 20.2807 43.9752 20.1963 45.0255C20.1146 46.0413 19.832 47.5138 19.2357 47.6428C18.6394 47.7717 16.0778 47.2929 15.9583 45.8677C15.5219 45.5343 13.8637 43.5696 14.4475 42.5973C15.4857 40.8687 19.9599 40.8574 20.2319 42.1979Z" fill="#F49577"/>
<path d="M18.3183 44.3357C18.3183 44.478 18.2385 44.5932 18.1402 44.5932C18.0418 44.5932 17.962 44.478 17.962 44.3357C17.962 44.1935 18.0418 44.0784 18.1402 44.0784C18.2385 44.0784 18.3183 44.1935 18.3183 44.3357Z" fill="#222528"/>
<path d="M19.9111 44.2639C19.9111 44.4061 19.8312 44.5212 19.7329 44.5212C19.6343 44.5212 19.5547 44.4061 19.5547 44.2639C19.5547 44.1216 19.6343 44.0064 19.7329 44.0064C19.8312 44.0064 19.9111 44.1216 19.9111 44.2639Z" fill="#222528"/>
<path d="M18.4396 43.7084C18.2689 43.6648 18.1111 43.6346 17.9606 43.6559C17.809 43.6718 17.6761 43.7515 17.532 43.8531C17.5651 43.7742 17.6127 43.6956 17.6867 43.6404C17.7566 43.5801 17.8489 43.5437 17.9429 43.5308C18.1327 43.5073 18.3219 43.5789 18.4396 43.7084Z" fill="#222528"/>
<path d="M19.2295 43.6364C19.347 43.5068 19.5362 43.4352 19.726 43.4589C19.8198 43.4718 19.9123 43.5082 19.9822 43.5684C20.0562 43.6235 20.1038 43.7024 20.1369 43.781C19.9928 43.6794 19.8601 43.5998 19.7083 43.5841C19.5578 43.5625 19.4 43.5927 19.2295 43.6364Z" fill="#222528"/>
<path d="M19.0989 44.6421C19.1239 44.7906 19.2074 44.924 19.2815 45.0568L19.5162 45.4559C19.5555 45.5235 19.5958 45.5903 19.6289 45.6663C19.6439 45.7056 19.6626 45.7428 19.664 45.8009C19.663 45.818 19.6638 45.8331 19.6538 45.8577C19.6449 45.8806 19.6366 45.8862 19.627 45.9007C19.6081 45.9227 19.5877 45.9402 19.5673 45.9518C19.4861 46.0021 19.4068 46.0224 19.3255 46.0379C19.2449 46.0532 19.164 46.0613 19.0819 46.0576L19.0789 46.0432C19.2205 45.974 19.3763 45.916 19.4786 45.8363C19.5029 45.8154 19.5145 45.7977 19.5073 45.8044C19.5043 45.7858 19.4973 45.7496 19.4858 45.7172C19.4638 45.6496 19.4347 45.5788 19.4046 45.5092L19.212 45.0893C19.1555 44.9463 19.0889 44.8009 19.0837 44.6427L19.0989 44.6421Z" fill="#E55F3F"/>
<path d="M19.6599 46.2808C19.6599 46.2808 19.1767 46.2373 18.6989 46.4685C18.6989 46.4685 19.5201 46.5842 19.5946 46.5047C19.6692 46.4252 19.6599 46.2808 19.6599 46.2808Z" fill="white"/>
<path d="M20.3117 42.5591C20.1813 42.8294 19.291 43.2238 17.6566 43.1367C17.6566 43.1367 18.4745 42.92 18.654 42.3007C18.654 42.3007 17.9953 43.2763 16.7128 43.2513C16.7128 43.2513 16.8257 44.1227 16.272 45.0177C16.272 45.0177 15.9038 45.4889 15.9583 45.8677C16.0096 46.2238 15.6202 46.8602 15.3618 47.0046C15.2062 45.8778 13.9866 43.6742 14.224 42.4329C14.4642 41.1777 15.6346 41.1556 15.6346 41.1556C16.1672 40.3362 18.135 39.9998 19.4183 40.6772C20.3683 41.1785 20.5489 42.067 20.3117 42.5591Z" fill="#222528"/>
<path d="M16.4057 44.632C16.1325 43.9812 15.2112 44.0345 15.2065 44.583C15.1981 45.4835 15.7593 45.7502 15.9583 45.8677C16.1573 45.9852 16.5706 45.0246 16.4057 44.632Z" fill="#F49577"/>
<path d="M10.796 55.1667C10.5847 56.4341 10.4074 57.6807 10.3411 57.6137C10.167 57.4318 7.1456 56.6369 6.9575 56.5281C6.0744 56.0171 5.4564 56.098 5.06664 56.098L4.50819 56.0732C4.50819 56.0732 4.17901 55.9964 3.94957 56.098C3.71728 56.1996 3.65181 56.376 3.86663 56.4452C4.05881 56.5072 4.41851 56.5607 4.41851 56.5607C4.41851 56.5607 3.67399 56.5458 3.0871 56.5009C2.86618 56.484 2.84117 56.7742 2.84117 56.7742C2.84117 56.7742 2.74811 56.7609 2.70132 56.751C2.40236 56.6872 2.28669 57.121 2.406 57.1544C2.6062 57.2103 2.74347 57.2276 2.74347 57.2276C2.6681 57.2564 2.53628 57.4578 2.72486 57.5115C2.9301 57.5698 3.48044 57.6773 3.48044 57.6773C3.35009 57.6773 3.24175 57.9205 3.3176 57.9473C3.62103 58.0539 4.65161 58.3019 4.79952 58.3164C4.93093 58.3291 5.60415 58.3217 5.9027 58.2762C6.14044 58.2416 6.6414 58.2213 6.6414 58.2213C6.6414 58.2213 10.9168 60.2261 11.4283 60.2884C11.8917 60.345 12.6629 60.1868 12.9114 59.5095C13.1367 58.8948 14.0745 55.151 14.0745 55.151C13.762 53.2275 11.1153 53.2486 10.796 55.1667Z" fill="#F49577"/>
<path d="M6.69577 58.1738C6.69577 58.1738 6.89679 57.9062 6.94698 57.5332" stroke="#DF7D58" stroke-width="0.753483" stroke-miterlimit="10" stroke-linecap="round" stroke-linejoin="round"/>
<path d="M4.9202 56.6271C4.9202 56.6271 5.25264 57.1632 6.28671 57.0922C5.50173 57.2306 5.00549 58.0046 5.00549 58.0046" stroke="#DF7D58" stroke-width="0.753483" stroke-miterlimit="10" stroke-linecap="round" stroke-linejoin="round"/>
<path d="M3.55203 57.674L4.67941 57.8308" stroke="#DF7D58" stroke-width="0.753483" stroke-miterlimit="10" stroke-linecap="round" stroke-linejoin="round"/>
<path d="M2.91287 57.2103L4.61002 57.4006" stroke="#DF7D58" stroke-width="0.753483" stroke-miterlimit="10" stroke-linecap="round" stroke-linejoin="round"/>
<path d="M2.98227 56.7752L4.52227 56.915" stroke="#DF7D58" stroke-width="0.753483" stroke-miterlimit="10" stroke-linecap="round" stroke-linejoin="round"/>
<path d="M11.4285 49.3651C10.2675 51.6059 10.2274 56.6667 10.2274 56.6667C10.2274 56.6667 12.5165 57.8193 13.8776 57.2851C13.8776 57.2851 14.7604 52.4682 14.4146 50.702C14.2036 49.6232 11.9934 48.2747 11.4285 49.3651Z" fill="#17203E"/>
<path d="M56.0009 64.4789C55.7647 66.6473 57.3368 93.6567 57.3368 93.6567H60.592C60.592 93.6567 61.6124 74.5021 61.4752 71.7071C61.3378 68.9122 61.9623 66.261 61.7785 64.562C61.5945 62.8626 56.3991 60.8212 56.0009 64.4789Z" fill="#17203E"/>
<path d="M60.6512 64.6419C60.6482 74.3774 64.7285 93.6567 64.7285 93.6567H68.0834C68.0834 93.6567 66.3926 71.7234 66.3299 68.9185C66.2845 66.9044 66.0498 65.5031 65.8446 63.7979C65.498 60.9182 60.6524 60.9765 60.6512 64.6419Z" fill="#17203E"/>
<path d="M55.9971 66.5992C55.9844 66.0747 55.9774 65.6275 55.9774 65.273C56.3477 65.3537 58.2021 65.7323 60.5934 65.7747C60.6181 65.7751 60.6429 65.7755 60.6676 65.7757C60.6718 65.9226 60.6766 66.0695 60.6822 66.2196C59.6933 66.1691 58.8828 66.1479 58.2399 66.1479C57.2854 66.1479 56.7001 66.1946 56.446 66.2626C56.279 66.3059 56.1239 66.4423 55.9971 66.5992Z" fill="#131A2E"/>
<path d="M66.0453 65.385C66.0326 65.2836 66.0195 65.182 66.0066 65.0802C66.0068 65.0802 66.0072 65.0802 66.0074 65.08C66.0203 65.1818 66.033 65.2834 66.0455 65.3848C66.0453 65.385 66.0453 65.385 66.0453 65.385Z" fill="#A3A9BD"/>
<path d="M61.7708 66.2626C61.5829 66.2626 61.3901 66.258 61.1974 66.2467C61.0213 66.2377 60.8495 66.2262 60.6828 66.2196C60.6826 66.2196 60.6824 66.2196 60.6822 66.2196C60.6765 66.0695 60.6718 65.9226 60.6676 65.7757C60.7242 65.7766 60.7807 65.777 60.8373 65.777C63.189 65.777 65.5701 65.1927 66.0066 65.0802C66.0195 65.182 66.0326 65.2836 66.0452 65.385C65.4812 65.6261 63.808 66.256 61.7708 66.2626Z" fill="#131A2E"/>
<path d="M57.4694 49.07C55.0821 51.2379 55.2153 57.0061 55.2153 57.0061C55.2153 57.0061 57.4137 58.42 58.7213 57.8682C58.7213 57.8682 59.7106 51.953 59.1883 50.1286C58.8695 49.0145 57.9131 48.6668 57.4694 49.07Z" fill="#3D82C7"/>
<path d="M64.1472 48.1958C64.1472 48.1958 67.4803 49.2211 67.5874 49.8389C67.6943 50.4569 65.8415 58.798 65.8415 60.8897C65.8415 62.9811 66.0775 65.0617 66.0775 65.0617C66.0775 65.0617 63.2722 65.8222 60.5934 65.7747C57.9146 65.7272 55.9098 65.2579 55.9098 65.2579C55.9098 65.2579 56.0555 62.6988 56.1092 60.9875C56.1624 59.276 56.2013 54.3535 56.1969 52.5247C56.1934 50.9341 56.9658 49.6353 57.4694 49.07C57.8854 48.6028 60.626 48.1113 60.626 48.1113L64.1472 48.1958Z" fill="#3D82C7"/>
<path d="M56.1606 58.1134C56.1601 58.1134 56.1597 58.1132 56.1593 58.1132C56.1614 57.9762 56.1633 57.8376 56.1649 57.6978L56.1655 57.6974C56.1639 57.8372 56.1622 57.9762 56.1606 58.1134Z" fill="#A8CDE4"/>
<path d="M56.1649 57.6978C56.1657 57.636 56.1663 57.574 56.1669 57.5119C56.1672 57.5119 56.1674 57.5119 56.1674 57.5119C56.1667 57.5738 56.1661 57.6358 56.1655 57.6974L56.1649 57.6978Z" fill="#5084CC"/>
<path d="M56.1674 57.5119C56.1674 57.5119 56.1672 57.5119 56.167 57.5119C56.1709 57.1757 56.1741 56.8345 56.1776 56.4949C56.1745 56.8347 56.1712 57.1759 56.1674 57.5119Z" fill="#3269B7"/>
<path d="M59.0469 48.4548L59.0473 48.454C59.8415 48.2516 60.6264 48.1107 60.6264 48.1107C60.6262 48.1109 60.6258 48.1111 60.6256 48.1113C60.604 48.1152 59.8295 48.255 59.0469 48.4548Z" fill="#639AD8"/>
<path d="M65.8856 62.5858C65.3523 61.5696 64.3486 60.6349 63.8388 60.4779C63.2028 60.2818 57.9206 58.1947 57.3087 58.1947C57.2966 58.1947 57.2862 58.1955 57.2779 58.1973C57.2226 58.2082 57.1525 58.213 57.0727 58.213C56.8195 58.213 56.4658 58.1651 56.1606 58.1134C56.1622 57.9762 56.1639 57.8372 56.1655 57.6974C56.1662 57.6358 56.1668 57.5738 56.1674 57.5119C56.1712 57.1759 56.1745 56.8347 56.1776 56.4949C56.1784 56.405 56.1795 56.3154 56.1803 56.2259L59.0469 48.4548C59.8295 48.255 60.604 48.1152 60.6256 48.1113C60.3905 48.295 60.0647 49.3277 59.8251 49.8409C59.5831 50.3549 58.2672 55.7417 58.2672 55.7417L62.7462 56.1714C63.3055 52.0375 64.511 50.3708 64.511 50.3708L67.1757 52.5469C66.6588 55.355 65.8409 59.5002 65.8409 60.8896C65.8409 61.4716 65.8598 62.0514 65.8856 62.5858Z" fill="#3269B7"/>
<path d="M63.8282 46.9467L64.1471 48.2033C64.1471 48.2033 62.7724 50.4203 61.1495 50.1986C59.5265 49.9769 60.626 48.1113 60.626 48.1113L60.5616 47.279L63.5552 45.5623L63.8282 46.9467Z" fill="#DF7D58"/>
<path d="M59.0752 42.2134C58.9907 42.6303 58.9092 43.9752 58.9936 45.0256C59.0752 46.0414 59.3575 47.5116 59.9538 47.6406C60.5501 47.7693 63.1119 47.2929 63.2315 45.8677C63.6679 45.5344 65.3263 43.5696 64.7422 42.5973C63.7043 40.8687 59.3471 40.8729 59.0752 42.2134Z" fill="#F49577"/>
<path d="M60.8716 44.3357C60.8716 44.478 60.9514 44.5932 61.0496 44.5932C61.1481 44.5932 61.228 44.478 61.228 44.3357C61.228 44.1935 61.1481 44.0784 61.0496 44.0784C60.9514 44.0784 60.8716 44.1935 60.8716 44.3357Z" fill="#222528"/>
<path d="M59.3143 44.2343C59.3143 44.3766 59.3939 44.4918 59.4923 44.4918C59.5908 44.4918 59.6706 44.3766 59.6706 44.2343C59.6706 44.0923 59.5908 43.9768 59.4923 43.9768C59.3939 43.9768 59.3143 44.0923 59.3143 44.2343Z" fill="#222528"/>
<path d="M60.736 43.8134C60.8288 43.6519 61.0219 43.5489 61.2261 43.5519C61.3269 43.5557 61.4297 43.5821 61.5101 43.6382C61.5939 43.6889 61.6559 43.7639 61.6962 43.8468C61.6047 43.815 61.529 43.7786 61.4502 43.7581C61.3735 43.7342 61.298 43.7231 61.2224 43.7223C61.0697 43.7167 60.9157 43.7585 60.736 43.8134Z" fill="#222528"/>
<path d="M60.0842 43.712C59.9043 43.6571 59.7502 43.6151 59.5976 43.6209C59.5222 43.6217 59.4463 43.6328 59.3695 43.6565C59.291 43.6772 59.2153 43.7134 59.124 43.7454C59.1641 43.6625 59.2263 43.5875 59.3099 43.5368C59.3905 43.4805 59.4931 43.4543 59.5939 43.4505C59.7983 43.4475 59.9914 43.5505 60.0842 43.712Z" fill="#222528"/>
<path d="M60.1062 44.6427C60.1018 44.8057 60.0368 44.957 59.981 45.1058L59.7904 45.5432C59.7604 45.6158 59.7315 45.6893 59.7093 45.7603C59.6972 45.7945 59.6891 45.8319 59.6856 45.8558L59.6843 45.8673L59.6845 45.8663L59.7064 45.8927C59.8043 45.9782 59.9665 46.0403 60.111 46.114L60.1079 46.1289C60.0228 46.1319 59.9395 46.1226 59.8561 46.1053C59.7723 46.0878 59.6902 46.0639 59.6072 46.0065C59.5862 45.9906 59.5664 45.9729 59.5486 45.9448C59.5407 45.9359 59.529 45.9098 59.5261 45.8896L59.5247 45.842C59.5294 45.7872 59.5479 45.749 59.5631 45.7092C59.597 45.6315 59.6367 45.5615 59.6762 45.4911L59.9097 45.0742C59.9833 44.9354 60.0661 44.796 60.0908 44.6421L60.1062 44.6427Z" fill="#DF7D58"/>
<path d="M59.4819 46.4677C59.4819 46.4677 59.9513 46.3001 60.4291 46.531C60.4291 46.531 59.6081 46.6467 59.5332 46.5672C59.4586 46.4878 59.4819 46.4677 59.4819 46.4677Z" fill="white"/>
<path d="M58.9837 42.7509C59.1138 43.0211 61.4637 43.0026 62.7462 42.9779C62.7462 42.9779 62.3642 44.1226 62.9177 45.0177C62.9177 45.0177 63.2862 45.4889 63.2315 45.8677C63.1801 46.2238 63.786 47.0523 63.822 46.7656C63.934 45.8743 65.2111 43.3388 64.8655 42.1216C64.5732 41.0916 63.9045 41.1396 63.9045 41.1396C63.3718 40.32 62.0472 40.7618 59.3856 40.1945C58.3287 39.9692 58.7462 42.2586 58.9837 42.7509Z" fill="#222528"/>
<path d="M62.784 44.632C63.0574 43.9812 63.9785 44.0345 63.9835 44.583C63.9918 45.4835 63.4306 45.7502 63.2314 45.8677C63.0325 45.9852 62.6193 45.0246 62.784 44.632Z" fill="#F49577"/>
<path d="M55.8688 57.6111C56.2707 57.7473 56.3855 57.7791 56.5485 57.7831C56.9485 57.7932 57.2124 57.7642 57.2124 57.7642C57.2124 57.7642 63.1582 59.7813 63.723 59.7497C64.1411 59.7241 65.052 59.4642 65.4443 58.8194C65.8194 58.2026 66.6511 55.7334 66.9586 54.6376C67.5372 52.5766 64.6904 52.2503 63.9446 54.2553C63.4518 55.5801 63.319 56.957 63.2616 56.8719C63.1119 56.6418 58.1692 56.1559 58.0686 55.9823C57.8706 55.6407 57.1608 55.4862 56.9591 55.4777C56.7377 55.4687 56.6416 55.4298 56.5512 55.4105C56.278 55.3526 56.0416 55.6095 56.3063 55.724C56.509 55.8117 56.877 55.9565 56.877 55.9565C56.877 55.9565 55.6047 55.5174 55.3602 55.4282C55.1157 55.3391 54.8354 55.6864 55.1706 55.8712C55.5058 56.0559 55.5729 56.0837 55.5729 56.0837C55.5729 56.0837 55.3413 55.9318 55.1178 55.9857C54.9677 56.0217 55.0552 56.4297 55.2211 56.4776C55.2405 56.483 55.3087 56.5022 55.3087 56.5022C55.3087 56.5022 54.9864 56.8172 55.439 56.9755C55.4758 56.9884 55.516 57.0017 55.516 57.0017C55.516 57.0017 55.2502 57.2212 55.4588 57.3556C55.6673 57.4898 55.8688 57.6111 55.8688 57.6111Z" fill="#F49577"/>
<path d="M59.9722 48.9917C59.8248 49.579 59.5688 49.4355 59.4898 49.607C59.4062 49.7886 57.8167 55.6 57.7583 55.866C57.5699 56.7243 56.4477 57.398 55.8017 57.1139C55.0975 56.8045 54.8538 55.8501 54.984 55.3087C55.1121 54.7758 57.978 49.1631 57.978 49.1631C57.978 49.1631 58.1953 47.414 58.3086 47.3519C58.6247 47.1787 59.2151 46.9771 59.2892 46.9626C59.5023 46.9207 60.5074 46.9688 60.5011 46.9628C60.4947 46.9565 60.4864 47.1877 60.3232 47.2897C60.255 47.3324 59.4657 47.4144 59.4657 47.4144C59.4657 47.4144 60.1905 47.4515 60.2236 47.5205C60.2566 47.5893 60.3417 48.3835 60.3096 48.4717C60.2013 48.7698 59.9882 48.933 59.9722 48.9917Z" fill="#F49577"/>
<path d="M58.8101 47.5486L59.1573 47.4691" stroke="#DF7D58" stroke-width="0.753483" stroke-miterlimit="10" stroke-linecap="round" stroke-linejoin="round"/>
<path d="M58.8782 47.8506C58.8782 47.8506 59.9008 47.8635 59.9314 47.8882C59.9623 47.913 60.0339 48.3514 60.1095 48.4183C60.185 48.4851 60.2235 48.4779 60.2235 48.4779" stroke="#DF7D58" stroke-width="0.753483" stroke-miterlimit="10" stroke-linecap="round" stroke-linejoin="round"/>
<path d="M58.7177 48.2399C58.7177 48.2399 59.5529 48.3292 59.6039 48.3514C59.6548 48.3737 59.7471 48.8272 59.9085 48.8346C60.0698 48.842 60.1095 48.6636 60.1095 48.6636" stroke="#DF7D58" stroke-width="0.753483" stroke-miterlimit="10" stroke-linecap="round" stroke-linejoin="round"/>
<path d="M58.7672 48.6378L59.4476 48.738" stroke="#DF7D58" stroke-width="0.753483" stroke-miterlimit="10" stroke-linecap="round" stroke-linejoin="round"/>
<path d="M59.2171 48.946C59.0556 48.9609 59.1327 49.2359 59.2171 49.2508C59.3016 49.2657 59.5858 49.2806 59.6473 49.2508C59.7087 49.221 59.8226 49.0625 59.8247 48.9394C59.8257 48.882 59.732 48.6378 59.732 48.6378" stroke="#DF7D58" stroke-width="0.753483" stroke-miterlimit="10" stroke-linecap="round" stroke-linejoin="round"/>
<path d="M59.6029 49.4866C59.6029 49.4866 59.228 49.6983 58.6616 49.5997" stroke="#DF7D58" stroke-width="0.753483" stroke-miterlimit="10" stroke-linecap="round" stroke-linejoin="round"/>
<path d="M59.4136 49.7132C59.4136 49.7132 59.2473 49.817 58.8782 49.6862" stroke="#DF7D58" stroke-width="0.753483" stroke-miterlimit="10" stroke-linecap="round" stroke-linejoin="round"/>
<path d="M59.3937 46.9513C59.3937 46.9513 60.4536 46.9627 60.5011 46.9627C60.5483 46.9625 60.4576 47.2571 60.3231 47.2897C60.1885 47.3225 59.4656 47.4144 59.4656 47.4144C59.4656 47.4144 60.2089 47.4633 60.2235 47.5204C60.238 47.5774 60.2805 47.8882 60.2805 47.8882" stroke="#DF7D58" stroke-width="0.753483" stroke-miterlimit="10" stroke-linecap="round" stroke-linejoin="round"/>
<path d="M67.5934 49.8337C68.6862 50.9865 66.2864 57.2809 66.2864 57.2809C66.2864 57.2809 64.4183 57.1572 63.0572 56.6231C63.0572 56.6231 64.1035 51.1414 64.5108 50.3702C65.0271 49.3927 66.7409 48.9348 67.5934 49.8337Z" fill="#3D82C7"/>
<path d="M57.7898 55.7412C57.628 56.3961 57.0425 57.3312 56.0164 57.1642C55.1669 57.0258 55.0005 55.9823 55.0005 55.9823" stroke="#DF7D58" stroke-width="0.753483" stroke-miterlimit="10" stroke-linecap="round" stroke-linejoin="round"/>
<path d="M10.1697 40.8628C10.1697 44.9161 6.77375 48.202 2.58484 48.202C-1.60418 48.202 -5 44.9161 -5 40.8628C-5 36.8095 -1.60418 33.5238 2.58484 33.5238C6.77375 33.5238 10.1697 36.8095 10.1697 40.8628Z" fill="#8ABDE8" fill-opacity="0.5"/>
<path d="M0.00455105 40.8628C0.00455105 41.3799 -0.428671 41.7989 -0.963003 41.7989C-1.49725 41.7989 -1.93039 41.3799 -1.93039 40.8628C-1.93039 40.3458 -1.49725 39.9267 -0.963003 39.9267C-0.428671 39.9267 0.00455105 40.3458 0.00455105 40.8628Z" fill="#817F7F"/>
<path d="M3.55221 40.8628C3.55221 41.3799 3.11911 41.7989 2.5848 41.7989C2.05047 41.7989 1.61725 41.3799 1.61725 40.8628C1.61725 40.3458 2.05047 39.9267 2.5848 39.9267C3.11911 39.9267 3.55221 40.3458 3.55221 40.8628Z" fill="#817F7F"/>
<path d="M7.09994 40.8628C7.09994 41.3799 6.66684 41.7989 6.13249 41.7989C5.59813 41.7989 5.16504 41.3799 5.16504 40.8628C5.16504 40.3458 5.59813 39.9267 6.13249 39.9267C6.66684 39.9267 7.09994 40.3458 7.09994 40.8628Z" fill="#817F7F"/>
<path d="M2.25256 47.6572C2.25256 47.6572 3.03151 49.5081 6.13251 49.6081C6.13251 49.6081 4.8039 48.6901 4.79371 47.1692L2.25256 47.6572Z" fill="#8ABDE8" fill-opacity="0.5"/>
<path d="M64.3674 36.0732C64.3674 40.1267 67.7633 43.4125 71.9523 43.4125C76.1412 43.4125 79.537 40.1267 79.537 36.0732C79.537 32.02 76.1412 28.7342 71.9523 28.7342C67.7633 28.7342 64.3674 32.02 64.3674 36.0732Z" fill="#DDE0EE"/>
<path d="M74.5325 36.0733C74.5325 36.5903 74.9656 37.0094 75.4999 37.0094C76.0343 37.0094 76.4674 36.5903 76.4674 36.0733C76.4674 35.5562 76.0343 35.1372 75.4999 35.1372C74.9656 35.1372 74.5325 35.5562 74.5325 36.0733Z" fill="white"/>
<path d="M70.985 36.0733C70.985 36.5903 71.4181 37.0094 71.9522 37.0094C72.4866 37.0094 72.9197 36.5903 72.9197 36.0733C72.9197 35.5562 72.4866 35.1372 71.9522 35.1372C71.4181 35.1372 70.985 35.5562 70.985 36.0733Z" fill="white"/>
<path d="M67.4371 36.0733C67.4371 36.5903 67.8702 37.0094 68.4045 37.0094C68.9389 37.0094 69.3722 36.5903 69.3722 36.0733C69.3722 35.5562 68.9389 35.1372 68.4045 35.1372C67.8702 35.1372 67.4371 35.5562 67.4371 36.0733Z" fill="white"/>
<path d="M72.2847 42.8677C72.2847 42.8677 71.5054 44.7186 68.4045 44.8186C68.4045 44.8186 69.7331 43.9006 69.7435 42.3796L72.2847 42.8677Z" fill="#DDE0EE"/>
</g>
<defs>
<clipPath id="clip0">
<rect width="84" height="88" fill="white"/>
</clipPath>
</defs>
</svg>
