<svg width="25" height="25" viewBox="0 0 25 25" fill="none" xmlns="http://www.w3.org/2000/svg">
<circle cx="12.5" cy="12.5" r="12.5" fill="#E2ECFF"/>
<g clip-path="url(#clip0)">
<path d="M17.9015 14.3333C17.8183 14.3333 17.7422 14.3803 17.705 14.4547L17.475 14.9148L16.8626 14.8211L16.5019 14.2201C16.2774 13.8457 15.8312 13.6807 15.4171 13.8188L14.8334 14.0133V13.4336L16.8089 12.6434C16.9068 12.6043 16.963 12.5011 16.943 12.3976L16.0694 7.88418C15.7859 6.41945 14.6405 5.28464 13.1894 5.00562V4.21973C13.1894 4.09838 13.0911 4 12.9697 4H12.0303C11.909 4 11.8106 4.09838 11.8106 4.21973V5.00562C10.3596 5.28464 9.21411 6.41945 8.93063 7.88418L8.05706 12.3976C8.03702 12.5011 8.0933 12.6043 8.19118 12.6434L10.1667 13.4336V14.0133L9.58296 13.8188C9.16882 13.6807 8.72271 13.8457 8.49812 14.2201L8.13745 14.8212L7.52506 14.9148L7.29505 14.4548C7.25784 14.3803 7.18176 14.3333 7.09853 14.3333C6.07091 14.3333 5.23486 15.1693 5.23486 16.197V17.8409C5.23486 17.9622 5.33324 18.0606 5.45459 18.0606H5.70455V18.7803C5.70455 18.9016 5.80293 19 5.92428 19C6.04562 19 6.144 18.9016 6.144 18.7803V18.0606H7.60448C7.70749 18.595 8.17844 19 8.74246 19C9.3816 19 9.90159 18.48 9.90159 17.8409C9.90159 17.2018 9.3816 16.6818 8.74246 16.6818C8.17847 16.6818 7.70749 17.0868 7.60451 17.6212H5.67432V16.197C5.67432 15.4564 6.2425 14.8461 6.96578 14.7789L7.69325 16.2338C7.74751 16.3424 7.87946 16.3863 7.98804 16.3321C8.09658 16.2778 8.14059 16.1458 8.0863 16.0373L7.73154 15.3278L8.21995 15.253L11.8106 17.7216V18.7803C11.8106 18.9016 11.909 19 12.0303 19C12.1516 19 12.25 18.9016 12.25 18.7803V16.4318C12.25 16.294 12.3622 16.1818 12.5 16.1818C12.6378 16.1818 12.75 16.294 12.75 16.4318V18.7803C12.75 18.9016 12.8483 19 12.9697 19C13.091 19 13.1894 18.9016 13.1894 18.7803V17.7216L15.4853 16.1432C15.5853 16.0744 15.6107 15.9376 15.5419 15.8376C15.4732 15.7376 15.3364 15.7123 15.2364 15.7811L13.1894 17.1883V16.4318C13.1894 16.0517 12.8801 15.7424 12.5 15.7424C12.1199 15.7424 11.8106 16.0517 11.8106 16.4318V17.1883L8.56741 14.9586L8.87494 14.4461C8.99274 14.2498 9.22674 14.1632 9.44397 14.2356L12.4305 15.2311C12.4756 15.2462 12.5244 15.2462 12.5695 15.2311L15.556 14.2356C15.7733 14.1632 16.0073 14.2497 16.1251 14.4461L16.4326 14.9586L15.9196 15.3113C15.8196 15.3801 15.7942 15.5169 15.863 15.6169C15.9317 15.7168 16.0686 15.7422 16.1685 15.6734L16.7801 15.253L17.2685 15.3277L16.9137 16.0372C16.8594 16.1458 16.9034 16.2778 17.012 16.332C17.1205 16.3863 17.2525 16.3423 17.3068 16.2338L18.0342 14.7788C18.7575 14.846 19.3257 15.4564 19.3257 16.1969V17.6211H17.3955C17.2925 17.0867 16.8216 16.6818 16.2576 16.6818C15.6184 16.6818 15.0984 17.2018 15.0984 17.8409C15.0984 18.48 15.6184 19 16.2576 19C16.8216 19 17.2925 18.595 17.3955 18.0606H18.856V18.7803C18.856 18.9016 18.9544 19 19.0757 19C19.1971 19 19.2955 18.9016 19.2955 18.7803V18.0606H19.5454C19.6668 18.0606 19.7651 17.9622 19.7651 17.8409V16.197C19.7652 15.1693 18.9291 14.3333 17.9015 14.3333ZM8.74246 17.1212C9.13929 17.1212 9.46214 17.4441 9.46214 17.8409C9.46214 18.2377 9.13929 18.5605 8.74246 18.5605C8.34563 18.5605 8.02281 18.2377 8.02281 17.8409C8.02281 17.4441 8.34563 17.1212 8.74246 17.1212ZM14.3637 13.1482V12.2212C14.3637 11.9663 14.463 11.7266 14.6432 11.5463L15.1537 11.0358C15.3858 10.8038 15.569 10.5331 15.6983 10.2314L15.9586 9.62415L16.477 12.3028L14.3637 13.1482ZM12.2501 4.43945H12.75V7.65142L12.5 7.90138L12.2501 7.65142V4.43945ZM11.8106 5.45362V7.74244C11.8106 7.80071 11.8337 7.85658 11.875 7.8978L12.3447 8.36752C12.3858 8.40874 12.4417 8.43188 12.5 8.43188C12.5583 8.43188 12.6142 8.40874 12.6554 8.36752L13.1251 7.8978C13.1663 7.85658 13.1894 7.80071 13.1894 7.74244V5.45362C14.4255 5.72541 15.3942 6.708 15.638 7.96768L15.8098 8.85561L15.2944 10.0583C15.1872 10.3084 15.0353 10.5327 14.843 10.725L14.3325 11.2355C14.0692 11.4988 13.9242 11.8489 13.9242 12.2212V13.324L13.4243 13.5239V10.4434L14.4218 9.77837C14.6795 9.60654 14.8334 9.31905 14.8334 9.00933V8.447C14.8334 8.37086 14.794 8.30014 14.7292 8.26009C14.6644 8.22004 14.5835 8.21641 14.5154 8.25048L13.4958 8.76027C13.1806 8.91783 12.9849 9.23462 12.9849 9.58697V13.0263L12.5 13.3495L12.0152 13.0263V9.58697C12.0152 9.23462 11.8195 8.91786 11.5043 8.76027L10.4847 8.25048C10.4165 8.21638 10.3357 8.22007 10.2709 8.26009C10.2061 8.30014 10.1667 8.37086 10.1667 8.447V9.00933C10.1667 9.31905 10.3205 9.60654 10.5783 9.77837L11.5758 10.4434V13.5239L11.0758 13.324V12.2212C11.0758 11.8489 10.9308 11.4988 10.6676 11.2355L10.1571 10.725C9.96473 10.5327 9.81285 10.3084 9.70568 10.0583L9.19023 8.85561L9.36209 7.96768C9.60587 6.708 10.5745 5.72541 11.8106 5.45362ZM13.4243 9.91522V9.58697C13.4243 9.40214 13.527 9.236 13.6923 9.15332L14.3939 8.80252V9.00933C14.3939 9.17178 14.3132 9.3226 14.178 9.41274L13.4243 9.91522ZM11.5758 9.91522L10.822 9.41271C10.6868 9.32257 10.6061 9.17178 10.6061 9.0093V8.80249L11.3078 9.15329C11.4731 9.23594 11.5758 9.40211 11.5758 9.58694V9.91522ZM9.04146 9.62415L9.30174 10.2315C9.43105 10.5331 9.61425 10.8038 9.84631 11.0358L10.3568 11.5463C10.5371 11.7266 10.6364 11.9663 10.6364 12.2212V13.1482L8.523 12.3029L9.04146 9.62415ZM12.5 14.7911L10.6061 14.1598V13.6094L11.7139 14.0525C11.7402 14.063 11.7679 14.0682 11.7955 14.0682C11.8388 14.0682 11.8818 14.0554 11.9187 14.0304C11.979 13.9895 12.0152 13.9214 12.0152 13.8485V13.5545L12.3781 13.7964C12.415 13.821 12.4575 13.8333 12.5 13.8333C12.5425 13.8333 12.5849 13.821 12.6219 13.7964L12.9848 13.5545V13.8485C12.9848 13.9214 13.0209 13.9895 13.0813 14.0304C13.1182 14.0554 13.1612 14.0682 13.2045 14.0682C13.2321 14.0682 13.2598 14.063 13.2861 14.0525L14.3939 13.6094V14.1598L12.5 14.7911ZM16.2576 18.5605C15.8608 18.5605 15.5379 18.2377 15.5379 17.8409C15.5379 17.4441 15.8608 17.1213 16.2576 17.1213C16.6544 17.1213 16.9772 17.4441 16.9772 17.8409C16.9772 18.2377 16.6544 18.5605 16.2576 18.5605Z" fill="#5071F0"/>
</g>
<defs>
<clipPath id="clip0">
<rect width="15" height="15" fill="white" transform="translate(5 4)"/>
</clipPath>
</defs>
</svg>
