<svg width="23" height="26" viewBox="0 0 23 26" fill="none" xmlns="http://www.w3.org/2000/svg">
<path d="M21.1314 10.2534L12.5158 1.63783C11.6252 0.747131 10.1758 0.747081 9.28503 1.63783C8.48431 2.4385 8.41535 3.65963 9.00665 4.5316L8.99467 4.59157C8.37351 7.6976 6.8613 10.5233 4.62139 12.7631L0.669652 16.7149C-0.223182 17.6077 -0.223334 19.0528 0.669652 19.9457L2.82348 22.0995C3.71627 22.9923 5.1614 22.9924 6.05428 22.0995L6.59277 21.561L10.362 25.3303C11.2549 26.2232 12.6999 26.2232 13.5928 25.3303C14.4836 24.4396 14.4836 22.9902 13.5928 22.0995L11.9774 20.4841L12.5159 19.9457C13.4087 19.0529 13.4088 17.6078 12.5159 16.7149L12.15 16.3489C13.9501 15.0886 15.9945 14.2111 18.1777 13.7745L18.2385 13.7623C19.1298 14.3641 20.3481 14.2674 21.1314 13.4841H21.1315C22.0221 12.5935 22.0221 11.1442 21.1314 10.2534ZM4.97737 21.0226C4.67979 21.3201 4.19798 21.3202 3.9004 21.0225L1.74657 18.8687C1.44894 18.571 1.44894 18.0894 1.74657 17.7918L5.5158 14.0225L8.7466 17.2533C8.37783 17.6221 5.35523 20.6447 4.97737 21.0226ZM12.5158 23.1764C12.8127 23.4733 12.8127 23.9564 12.5158 24.2533C12.219 24.5502 11.7358 24.5502 11.4389 24.2533L7.66963 20.484L8.7466 19.4071L12.5158 23.1764ZM9.82351 18.3302C10.0524 18.1013 10.3951 17.7506 10.9359 17.2887L11.4389 17.7918C11.7365 18.0894 11.7365 18.571 11.4389 18.8687L10.9004 19.4072L9.82351 18.3302ZM9.85586 16.2088L6.56027 12.9132C8.32638 10.8739 9.59114 8.46658 10.2678 5.85135L16.9177 12.5012C14.3025 13.1778 11.8952 14.4426 9.85586 16.2088ZM20.0543 12.4071C19.7567 12.7047 19.2751 12.7047 18.9774 12.4071L10.3619 3.79166C10.0643 3.49399 10.0643 3.01238 10.3619 2.71475C10.6596 2.41712 11.1413 2.41712 11.4389 2.71475L20.0543 11.3302C20.3512 11.6271 20.3512 12.1102 20.0543 12.4071Z" fill="white"/>
<path d="M6.05424 16.7148C5.75691 16.4174 5.27469 16.4174 4.97732 16.7148L3.9004 17.7917C3.60302 18.0891 3.60302 18.5713 3.9004 18.8687C4.19772 19.166 4.67999 19.166 4.97732 18.8687L6.05424 17.7917C6.35161 17.4944 6.35161 17.0122 6.05424 16.7148Z" fill="white"/>
<path d="M16.0133 0C15.5928 0 15.2518 0.340945 15.2518 0.761514V2.28454C15.2518 2.70511 15.5928 3.04606 16.0133 3.04606C16.4339 3.04606 16.7749 2.70511 16.7749 2.28454V0.761514C16.7749 0.340945 16.4339 0 16.0133 0Z" fill="white"/>
<path d="M22.1054 6.09201H20.5824C20.1618 6.09201 19.8209 6.43296 19.8209 6.85352C19.8209 7.27409 20.1618 7.61504 20.5824 7.61504H22.1054C22.526 7.61504 22.8669 7.27409 22.8669 6.85352C22.8669 6.43296 22.5259 6.09201 22.1054 6.09201Z" fill="white"/>
<path d="M21.1209 1.74601C20.8236 1.44864 20.3413 1.44864 20.044 1.74601L18.5209 3.26904C18.2236 3.56641 18.2236 4.04858 18.5209 4.34596C18.8183 4.64333 19.3005 4.64338 19.5979 4.34596L21.1209 2.82293C21.4183 2.52555 21.4183 2.04344 21.1209 1.74601Z" fill="white"/>
</svg>
