<svg width="13" height="13" viewBox="0 0 13 13" fill="none" xmlns="http://www.w3.org/2000/svg">
<path d="M11.9082 5.8944C11.6092 5.8944 11.3666 5.6518 11.3666 5.35276C11.3666 3.83339 10.7751 2.40557 9.70093 1.33083C9.48918 1.11907 9.48918 0.776796 9.70093 0.564943C9.91268 0.353189 10.2551 0.353189 10.4668 0.564943C11.7458 1.8438 12.4499 3.54418 12.4499 5.35276C12.4499 5.6518 12.2073 5.8944 11.9082 5.8944Z" fill="#5071F0"/>
<path d="M1.07484 5.8944C0.775902 5.8944 0.533203 5.6518 0.533203 5.35276C0.533203 3.54418 1.2374 1.8438 2.51625 0.564943C2.728 0.353189 3.07038 0.353189 3.28214 0.564943C3.49399 0.776796 3.49399 1.11907 3.28214 1.33083C2.20799 2.40497 1.61657 3.83339 1.61657 5.35276C1.61657 5.6518 1.37387 5.8944 1.07484 5.8944Z" fill="#5071F0"/>
<path d="M11.5719 9.16125C10.7528 8.46896 10.2832 7.45711 10.2832 6.38515V4.875C10.2832 2.96892 8.86727 1.39103 7.0332 1.12671V0.541634C7.0332 0.242104 6.7905 0 6.49156 0C6.19253 0 5.94983 0.242104 5.94983 0.541634V1.12671C4.11526 1.39103 2.69983 2.96892 2.69983 4.875V6.38515C2.69983 7.45711 2.2302 8.46896 1.40639 9.16552C1.19563 9.34593 1.07483 9.60807 1.07483 9.88538C1.07483 10.4082 1.50002 10.8334 2.02281 10.8334H10.9603C11.483 10.8334 11.9082 10.4082 11.9082 9.88538C11.9082 9.60807 11.7874 9.34593 11.5719 9.16125Z" fill="#5071F0"/>
<path d="M6.49155 13C7.47247 13 8.2931 12.3007 8.48164 11.375H4.50146C4.68991 12.3007 5.51054 13 6.49155 13Z" fill="#5071F0"/>
</svg>
