<svg width="26" height="26" viewBox="0 0 26 26" fill="none" xmlns="http://www.w3.org/2000/svg">
<g filter="url(#filter0_d)">
<rect x="3" y="3" width="18" height="18" rx="3" fill="white"/>
</g>
<path fill-rule="evenodd" clip-rule="evenodd" d="M17 7.62469C16.9999 7.51819 16.9727 7.41347 16.9208 7.32047C16.8689 7.22747 16.7941 7.14927 16.7035 7.0933C16.6129 7.03732 16.5095 7.00542 16.4031 7.00063C16.2967 6.99584 16.1909 7.01831 16.0956 7.06592L11.2269 9.49975H8.875C8.37772 9.49975 7.90081 9.6973 7.54917 10.0489C7.19754 10.4006 7 10.8775 7 11.3748C7 11.8721 7.19754 12.349 7.54917 12.7007C7.90081 13.0523 8.37772 13.2499 8.875 13.2499H9.05L10.1569 16.5725C10.1983 16.697 10.2779 16.8053 10.3844 16.882C10.4909 16.9588 10.6188 17 10.75 17H11.375C11.5408 17 11.6997 16.9342 11.8169 16.8169C11.9342 16.6997 12 16.5407 12 16.375V13.6361L16.0956 15.6837C16.1909 15.7313 16.2967 15.7538 16.4031 15.749C16.5095 15.7442 16.6129 15.7123 16.7035 15.6563C16.7941 15.6004 16.8689 15.5222 16.9208 15.4292C16.9727 15.3362 16.9999 15.2314 17 15.1249V7.62469Z" fill="#5071F0"/>
<defs>
<filter id="filter0_d" x="0" y="0" width="26" height="26" filterUnits="userSpaceOnUse" color-interpolation-filters="sRGB">
<feFlood flood-opacity="0" result="BackgroundImageFix"/>
<feColorMatrix in="SourceAlpha" type="matrix" values="0 0 0 0 0 0 0 0 0 0 0 0 0 0 0 0 0 0 127 0" result="hardAlpha"/>
<feOffset dx="1" dy="1"/>
<feGaussianBlur stdDeviation="2"/>
<feColorMatrix type="matrix" values="0 0 0 0 0 0 0 0 0 0 0 0 0 0 0 0 0 0 0.25 0"/>
<feBlend mode="normal" in2="BackgroundImageFix" result="effect1_dropShadow"/>
<feBlend mode="normal" in="SourceGraphic" in2="effect1_dropShadow" result="shape"/>
</filter>
</defs>
</svg>
