<svg width="27" height="25" viewBox="0 0 27 25" fill="none" xmlns="http://www.w3.org/2000/svg">
<g clip-path="url(#clip0)">
<path d="M9.09988 11.9745H19.3174C19.3487 11.9745 19.379 11.9701 19.4081 11.9631C19.4105 11.9631 19.4124 11.9635 19.4147 11.9635C19.6328 11.9635 19.81 11.7865 19.81 11.5682V0.395314C19.81 0.177099 19.6328 0 19.4147 0H19.3182H9.73212H9.10044C8.04823 0 7.19235 0.856073 7.19235 1.90799C7.19235 1.9221 7.19513 1.93549 7.1965 1.94911C7.19513 2.92082 7.18308 11.8496 7.19513 13.0234C7.19437 13.0464 7.19157 13.0688 7.19157 13.092C7.19157 14.1035 7.98356 14.9315 8.97977 14.9941C8.99975 14.9971 9.01935 15.0001 9.04009 15.0001H19.4147C19.6328 15.0001 19.81 14.8231 19.81 14.6047V13.1167C19.81 12.8986 19.6328 12.7214 19.4147 12.7214C19.1966 12.7214 19.0194 12.8986 19.0194 13.1167V14.2095H9.09988C8.49915 14.2095 8.00878 13.7325 7.98467 13.1378C7.98526 13.1271 7.98719 13.1171 7.98699 13.1063C7.9866 13.0889 7.98601 13.0619 7.98562 13.026C8.02017 12.4407 8.50601 11.9745 9.09988 11.9745ZM9.36943 1.90799C9.36943 1.68978 9.54653 1.51268 9.76474 1.51268C9.98296 1.51268 10.1601 1.68978 10.1601 1.90799V9.93788C10.1601 10.156 9.98296 10.3332 9.76474 10.3332C9.54653 10.3332 9.36943 10.156 9.36943 9.93788V1.90799Z" fill="#C2C2C2"/>
</g>
<path d="M3.2226 23L2.79486 21.8105H1.15717L0.73822 23H-6.10352e-05L1.60248 18.6992H2.3642L3.96674 23H3.2226ZM2.61029 21.207L2.20892 20.041C2.17963 19.9629 2.13861 19.8398 2.08588 19.6719C2.0351 19.5039 1.99994 19.3809 1.98041 19.3027C1.92767 19.543 1.85052 19.8057 1.74896 20.0908L1.36224 21.207H2.61029ZM5.76556 23.0586C5.27533 23.0586 4.90228 22.916 4.64642 22.6309C4.39252 22.3438 4.26556 21.9326 4.26556 21.3975C4.26556 20.8525 4.39838 20.4336 4.664 20.1406C4.93158 19.8477 5.31732 19.7012 5.82123 19.7012C6.16302 19.7012 6.47064 19.7646 6.74408 19.8916L6.53607 20.4453C6.24506 20.332 6.00482 20.2754 5.81537 20.2754C5.25482 20.2754 4.97455 20.6475 4.97455 21.3916C4.97455 21.7549 5.04388 22.0283 5.18256 22.2119C5.32318 22.3936 5.52826 22.4844 5.79779 22.4844C6.10443 22.4844 6.39447 22.4082 6.66791 22.2559V22.8564C6.54486 22.9287 6.41302 22.9805 6.2724 23.0117C6.13373 23.043 5.96478 23.0586 5.76556 23.0586ZM8.63666 22.502C8.80463 22.502 8.9726 22.4756 9.14056 22.4229V22.9414C9.06439 22.9746 8.96576 23.002 8.84467 23.0234C8.72552 23.0469 8.6015 23.0586 8.4726 23.0586C7.82025 23.0586 7.49408 22.7148 7.49408 22.0273V20.2812H7.0517V19.9766L7.52631 19.7246L7.76068 19.0391H8.18549V19.7598H9.10834V20.2812H8.18549V22.0156C8.18549 22.1816 8.2265 22.3047 8.30853 22.3848C8.39252 22.4629 8.50189 22.502 8.63666 22.502ZM10.4794 23H9.79095V19.7598H10.4794V23ZM9.74994 18.9014C9.74994 18.7783 9.78314 18.6836 9.84955 18.6172C9.91791 18.5508 10.0146 18.5176 10.1396 18.5176C10.2607 18.5176 10.3544 18.5508 10.4208 18.6172C10.4892 18.6836 10.5234 18.7783 10.5234 18.9014C10.5234 19.0186 10.4892 19.1113 10.4208 19.1797C10.3544 19.2461 10.2607 19.2793 10.1396 19.2793C10.0146 19.2793 9.91791 19.2461 9.84955 19.1797C9.78314 19.1113 9.74994 19.0186 9.74994 18.9014ZM12.205 23L10.9745 19.7598H11.7011L12.3603 21.6436C12.4736 21.96 12.5419 22.2158 12.5654 22.4111H12.5888C12.6064 22.2705 12.6747 22.0146 12.7939 21.6436L13.4531 19.7598H14.1855L12.9492 23H12.205ZM15.3661 23H14.6777V19.7598H15.3661V23ZM14.6367 18.9014C14.6367 18.7783 14.6699 18.6836 14.7363 18.6172C14.8046 18.5508 14.9013 18.5176 15.0263 18.5176C15.1474 18.5176 15.2411 18.5508 15.3076 18.6172C15.3759 18.6836 15.4101 18.7783 15.4101 18.9014C15.4101 19.0186 15.3759 19.1113 15.3076 19.1797C15.2411 19.2461 15.1474 19.2793 15.0263 19.2793C14.9013 19.2793 14.8046 19.2461 14.7363 19.1797C14.6699 19.1113 14.6367 19.0186 14.6367 18.9014ZM17.5605 22.502C17.7285 22.502 17.8964 22.4756 18.0644 22.4229V22.9414C17.9882 22.9746 17.8896 23.002 17.7685 23.0234C17.6494 23.0469 17.5253 23.0586 17.3964 23.0586C16.7441 23.0586 16.4179 22.7148 16.4179 22.0273V20.2812H15.9755V19.9766L16.4501 19.7246L16.6845 19.0391H17.1093V19.7598H18.0322V20.2812H17.1093V22.0156C17.1093 22.1816 17.1503 22.3047 17.2324 22.3848C17.3163 22.4629 17.4257 22.502 17.5605 22.502ZM19.4033 23H18.7148V19.7598H19.4033V23ZM18.6738 18.9014C18.6738 18.7783 18.707 18.6836 18.7734 18.6172C18.8417 18.5508 18.9384 18.5176 19.0634 18.5176C19.1845 18.5176 19.2783 18.5508 19.3447 18.6172C19.413 18.6836 19.4472 18.7783 19.4472 18.9014C19.4472 19.0186 19.413 19.1113 19.3447 19.1797C19.2783 19.2461 19.1845 19.2793 19.0634 19.2793C18.9384 19.2793 18.8417 19.2461 18.7734 19.1797C18.707 19.1113 18.6738 19.0186 18.6738 18.9014ZM21.8056 23.0586C21.3017 23.0586 20.9072 22.9121 20.622 22.6191C20.3388 22.3242 20.1972 21.9189 20.1972 21.4033C20.1972 20.874 20.329 20.458 20.5927 20.1553C20.8564 19.8525 21.2187 19.7012 21.6796 19.7012C22.1074 19.7012 22.4453 19.8311 22.6933 20.0908C22.9413 20.3506 23.0654 20.708 23.0654 21.1631V21.5352H20.9062C20.916 21.8496 21.0009 22.0918 21.1611 22.2617C21.3212 22.4297 21.5468 22.5137 21.8378 22.5137C22.0292 22.5137 22.207 22.4961 22.371 22.4609C22.537 22.4238 22.7148 22.3633 22.9042 22.2793V22.8389C22.7363 22.9189 22.5663 22.9756 22.3945 23.0088C22.2226 23.042 22.0263 23.0586 21.8056 23.0586ZM21.6796 20.2227C21.4609 20.2227 21.2851 20.292 21.1523 20.4307C21.0214 20.5693 20.9433 20.7715 20.9179 21.0371H22.3886C22.3847 20.7695 22.3203 20.5674 22.1953 20.4307C22.0703 20.292 21.8984 20.2227 21.6796 20.2227ZM26.0244 22.0771C26.0244 22.3936 25.9091 22.6367 25.6786 22.8066C25.4482 22.9746 25.1181 23.0586 24.6884 23.0586C24.2568 23.0586 23.9101 22.9932 23.6484 22.8623V22.2676C24.0292 22.4434 24.3837 22.5312 24.7119 22.5312C25.1357 22.5312 25.3476 22.4033 25.3476 22.1475C25.3476 22.0654 25.3242 21.9971 25.2773 21.9424C25.2304 21.8877 25.1533 21.8311 25.0458 21.7725C24.9384 21.7139 24.789 21.6475 24.5976 21.5732C24.2245 21.4287 23.9716 21.2842 23.8388 21.1396C23.7079 20.9951 23.6425 20.8076 23.6425 20.5771C23.6425 20.2998 23.7538 20.085 23.9765 19.9326C24.2011 19.7783 24.5058 19.7012 24.8906 19.7012C25.2714 19.7012 25.6318 19.7783 25.9716 19.9326L25.749 20.4512C25.3994 20.3066 25.1054 20.2344 24.8671 20.2344C24.5038 20.2344 24.3222 20.3379 24.3222 20.5449C24.3222 20.6465 24.3691 20.7324 24.4628 20.8027C24.5585 20.873 24.7656 20.9697 25.0839 21.0928C25.3515 21.1963 25.5458 21.291 25.6669 21.377C25.788 21.4629 25.8779 21.5625 25.9365 21.6758C25.9951 21.7871 26.0244 21.9209 26.0244 22.0771Z" fill="#C2C2C2"/>
<defs>
<clipPath id="clip0">
<rect width="15" height="15" fill="white" transform="translate(5.99994)"/>
</clipPath>
</defs>
</svg>
