<svg width="18" height="25" viewBox="0 0 18 25" fill="none" xmlns="http://www.w3.org/2000/svg">
<g clip-path="url(#clip0)">
<path d="M15.5951 6.52428C15.5947 6.52393 15.5944 6.52359 15.594 6.52325L9.47522 0.404663C9.21441 0.143738 8.86765 0 8.49881 0C8.12997 0 7.78321 0.143623 7.52228 0.404549L1.40668 6.52004C1.40462 6.5221 1.40256 6.52428 1.4005 6.52634C0.864914 7.06501 0.86583 7.939 1.40313 8.4763C1.64861 8.72189 1.97282 8.86414 2.31946 8.87901C2.33353 8.88039 2.34772 8.88107 2.36203 8.88107H2.6059V13.384C2.6059 14.275 3.33089 15 4.22215 15H6.61603C6.85864 15 7.05548 14.8033 7.05548 14.5605V11.0303C7.05548 10.6237 7.38621 10.2929 7.79282 10.2929H9.20479C9.6114 10.2929 9.94214 10.6237 9.94214 11.0303V14.5605C9.94214 14.8033 10.1389 15 10.3816 15H12.7755C13.6667 15 14.3917 14.275 14.3917 13.384V8.88107H14.6178C14.9866 8.88107 15.3333 8.73745 15.5944 8.47652C16.1322 7.93831 16.1325 7.06284 15.5951 6.52428Z" fill="#5071F0"/>
</g>
<path d="M3.94336 23H3.24023V21.0693H1.26562V23H0.56543V18.7168H1.26562V20.4688H3.24023V18.7168H3.94336V23ZM7.87207 21.374C7.87207 21.9033 7.73633 22.3164 7.46484 22.6133C7.19336 22.9102 6.81543 23.0586 6.33105 23.0586C6.02832 23.0586 5.76074 22.9902 5.52832 22.8535C5.2959 22.7168 5.11719 22.5205 4.99219 22.2646C4.86719 22.0088 4.80469 21.7119 4.80469 21.374C4.80469 20.8486 4.93945 20.4385 5.20898 20.1436C5.47852 19.8486 5.8584 19.7012 6.34863 19.7012C6.81738 19.7012 7.18848 19.8525 7.46191 20.1553C7.73535 20.4561 7.87207 20.8623 7.87207 21.374ZM5.51367 21.374C5.51367 22.1221 5.79004 22.4961 6.34277 22.4961C6.88965 22.4961 7.16309 22.1221 7.16309 21.374C7.16309 20.6338 6.8877 20.2637 6.33691 20.2637C6.04785 20.2637 5.83789 20.3594 5.70703 20.5508C5.57812 20.7422 5.51367 21.0166 5.51367 21.374ZM11.3965 23H10.7051V21.002C10.7051 20.7539 10.6582 20.5693 10.5645 20.4482C10.4707 20.3252 10.3242 20.2637 10.125 20.2637C9.85938 20.2637 9.66406 20.3506 9.53906 20.5244C9.41602 20.6963 9.35449 20.9834 9.35449 21.3857V23H8.66602V19.7598H9.20508L9.30176 20.1846H9.33691C9.42676 20.0303 9.55664 19.9111 9.72656 19.8271C9.89844 19.7432 10.0869 19.7012 10.292 19.7012C10.79 19.7012 11.1201 19.8711 11.2822 20.2109H11.3291C11.4248 20.0508 11.5596 19.9258 11.7334 19.8359C11.9072 19.7461 12.1064 19.7012 12.3311 19.7012C12.7178 19.7012 12.999 19.7988 13.1748 19.9941C13.3525 20.1895 13.4414 20.4873 13.4414 20.8877V23H12.7529V21.002C12.7529 20.7539 12.7051 20.5693 12.6094 20.4482C12.5156 20.3252 12.3691 20.2637 12.1699 20.2637C11.9023 20.2637 11.7061 20.3477 11.5811 20.5156C11.458 20.6816 11.3965 20.9375 11.3965 21.2832V23ZM15.8174 23.0586C15.3135 23.0586 14.9189 22.9121 14.6338 22.6191C14.3506 22.3242 14.209 21.9189 14.209 21.4033C14.209 20.874 14.3408 20.458 14.6045 20.1553C14.8682 19.8525 15.2305 19.7012 15.6914 19.7012C16.1191 19.7012 16.457 19.8311 16.7051 20.0908C16.9531 20.3506 17.0771 20.708 17.0771 21.1631V21.5352H14.918C14.9277 21.8496 15.0127 22.0918 15.1729 22.2617C15.333 22.4297 15.5586 22.5137 15.8496 22.5137C16.041 22.5137 16.2188 22.4961 16.3828 22.4609C16.5488 22.4238 16.7266 22.3633 16.916 22.2793V22.8389C16.748 22.9189 16.5781 22.9756 16.4062 23.0088C16.2344 23.042 16.0381 23.0586 15.8174 23.0586ZM15.6914 20.2227C15.4727 20.2227 15.2969 20.292 15.1641 20.4307C15.0332 20.5693 14.9551 20.7715 14.9297 21.0371H16.4004C16.3965 20.7695 16.332 20.5674 16.207 20.4307C16.082 20.292 15.9102 20.2227 15.6914 20.2227Z" fill="#5071F0"/>
<defs>
<clipPath id="clip0">
<rect width="15" height="15" fill="white" transform="translate(1)"/>
</clipPath>
</defs>
</svg>
