<svg width="21" height="25" viewBox="0 0 21 25" fill="none" xmlns="http://www.w3.org/2000/svg">
<g clip-path="url(#clip0)">
<path d="M11.4375 0.9375C8.13797 0.9375 5.40721 3.38792 4.94987 6.56248H2.99997L5.81248 9.37499L8.62498 6.56248H6.84473C7.28034 4.42565 9.17394 2.81248 11.4375 2.81248C14.022 2.81248 16.125 4.91546 16.125 7.49998C16.125 10.0845 14.022 12.1875 11.4375 12.1875C9.93373 12.1875 8.51052 11.4578 7.6307 10.2365L6.1091 11.3315C7.34048 13.0417 9.33222 14.0625 11.4375 14.0625C15.0561 14.0625 18 11.1182 18 7.50001C18 3.88183 15.0561 0.9375 11.4375 0.9375Z" fill="#C2C2C2"/>
<path d="M10.5 4.6875V8.49977L13.2987 10.1789L14.2637 8.5712L12.3749 7.43778V4.68753L10.5 4.6875Z" fill="#C2C2C2"/>
</g>
<path d="M3.94333 23H3.2402V21.0693H1.26559V23H0.565399V18.7168H1.26559V20.4688H3.2402V18.7168H3.94333V23ZM5.68649 23H4.99802V19.7598H5.68649V23ZM4.957 18.9014C4.957 18.7783 4.9902 18.6836 5.05661 18.6172C5.12497 18.5508 5.22165 18.5176 5.34665 18.5176C5.46774 18.5176 5.56149 18.5508 5.6279 18.6172C5.69626 18.6836 5.73044 18.7783 5.73044 18.9014C5.73044 19.0186 5.69626 19.1113 5.6279 19.1797C5.56149 19.2461 5.46774 19.2793 5.34665 19.2793C5.22165 19.2793 5.12497 19.2461 5.05661 19.1797C4.9902 19.1113 4.957 19.0186 4.957 18.9014ZM8.85056 22.0771C8.85056 22.3936 8.73532 22.6367 8.50485 22.8066C8.27438 22.9746 7.94431 23.0586 7.51462 23.0586C7.08298 23.0586 6.7363 22.9932 6.47458 22.8623V22.2676C6.85544 22.4434 7.20993 22.5312 7.53806 22.5312C7.96188 22.5312 8.1738 22.4033 8.1738 22.1475C8.1738 22.0654 8.15036 21.9971 8.10349 21.9424C8.05661 21.8877 7.97946 21.8311 7.87204 21.7725C7.76462 21.7139 7.6152 21.6475 7.4238 21.5732C7.05075 21.4287 6.79782 21.2842 6.66501 21.1396C6.53415 20.9951 6.46872 20.8076 6.46872 20.5771C6.46872 20.2998 6.58005 20.085 6.8027 19.9326C7.02731 19.7783 7.332 19.7012 7.71677 19.7012C8.09763 19.7012 8.45798 19.7783 8.79782 19.9326L8.57516 20.4512C8.22556 20.3066 7.93161 20.2344 7.69333 20.2344C7.33005 20.2344 7.14841 20.3379 7.14841 20.5449C7.14841 20.6465 7.19528 20.7324 7.28903 20.8027C7.38474 20.873 7.59177 20.9697 7.91013 21.0928C8.1777 21.1963 8.37204 21.291 8.49313 21.377C8.61423 21.4629 8.70407 21.5625 8.76266 21.6758C8.82126 21.7871 8.85056 21.9209 8.85056 22.0771ZM10.8047 22.502C10.9726 22.502 11.1406 22.4756 11.3086 22.4229V22.9414C11.2324 22.9746 11.1338 23.002 11.0127 23.0234C10.8935 23.0469 10.7695 23.0586 10.6406 23.0586C9.98825 23.0586 9.66208 22.7148 9.66208 22.0273V20.2812H9.2197V19.9766L9.69431 19.7246L9.92868 19.0391H10.3535V19.7598H11.2763V20.2812H10.3535V22.0156C10.3535 22.1816 10.3945 22.3047 10.4765 22.3848C10.5605 22.4629 10.6699 22.502 10.8047 22.502ZM14.833 21.374C14.833 21.9033 14.6972 22.3164 14.4258 22.6133C14.1543 22.9102 13.7763 23.0586 13.292 23.0586C12.9892 23.0586 12.7216 22.9902 12.4892 22.8535C12.2568 22.7168 12.0781 22.5205 11.9531 22.2646C11.8281 22.0088 11.7656 21.7119 11.7656 21.374C11.7656 20.8486 11.9004 20.4385 12.1699 20.1436C12.4394 19.8486 12.8193 19.7012 13.3095 19.7012C13.7783 19.7012 14.1494 19.8525 14.4228 20.1553C14.6963 20.4561 14.833 20.8623 14.833 21.374ZM12.4746 21.374C12.4746 22.1221 12.7509 22.4961 13.3037 22.4961C13.8506 22.4961 14.124 22.1221 14.124 21.374C14.124 20.6338 13.8486 20.2637 13.2978 20.2637C13.0088 20.2637 12.7988 20.3594 12.6679 20.5508C12.539 20.7422 12.4746 21.0166 12.4746 21.374ZM17.2705 19.7012C17.4091 19.7012 17.5234 19.7109 17.6133 19.7305L17.5459 20.3721C17.4482 20.3486 17.3466 20.3369 17.2412 20.3369C16.9658 20.3369 16.7422 20.4268 16.5703 20.6064C16.4004 20.7861 16.3154 21.0195 16.3154 21.3066V23H15.6269V19.7598H16.166L16.2568 20.3311H16.292C16.3994 20.1377 16.539 19.9844 16.7109 19.8711C16.8847 19.7578 17.0713 19.7012 17.2705 19.7012ZM17.7246 19.7598H18.4746L19.1338 21.5967C19.2334 21.8584 19.2998 22.1045 19.333 22.335H19.3564C19.374 22.2275 19.4062 22.0977 19.4531 21.9453C19.5 21.791 19.748 21.0625 20.1972 19.7598H20.9414L19.5556 23.4307C19.3037 24.1045 18.8838 24.4414 18.2959 24.4414C18.1435 24.4414 17.9951 24.4248 17.8506 24.3916V23.8467C17.9541 23.8701 18.0722 23.8818 18.205 23.8818C18.5371 23.8818 18.7705 23.6895 18.9052 23.3047L19.0254 23L17.7246 19.7598Z" fill="#C2C2C2"/>
<defs>
<clipPath id="clip0">
<rect width="15" height="15" fill="white" transform="translate(2.99997)"/>
</clipPath>
</defs>
</svg>
