<svg width="19" height="25" viewBox="0 0 19 25" fill="none" xmlns="http://www.w3.org/2000/svg">
<path d="M3.40131 20.0117C3.40131 20.459 3.25482 20.8018 2.96185 21.04C2.66888 21.2783 2.25189 21.3975 1.71088 21.3975H1.26556V23H0.565369V18.7168H1.79877C2.33392 18.7168 2.73431 18.8262 2.99994 19.0449C3.26752 19.2637 3.40131 19.5859 3.40131 20.0117ZM1.26556 20.8086H1.63763C1.99701 20.8086 2.26068 20.7461 2.42865 20.6211C2.59662 20.4961 2.6806 20.3008 2.6806 20.0352C2.6806 19.7891 2.60541 19.6055 2.45502 19.4844C2.30463 19.3633 2.07025 19.3027 1.75189 19.3027H1.26556V20.8086ZM5.82709 19.7012C5.96576 19.7012 6.08002 19.7109 6.16986 19.7305L6.10248 20.3721C6.00482 20.3486 5.90326 20.3369 5.79779 20.3369C5.5224 20.3369 5.29877 20.4268 5.12689 20.6064C4.95697 20.7861 4.87201 21.0195 4.87201 21.3066V23H4.18353V19.7598H4.7226L4.81342 20.3311H4.84857C4.95599 20.1377 5.09564 19.9844 5.26752 19.8711C5.44135 19.7578 5.62787 19.7012 5.82709 19.7012ZM9.6474 21.374C9.6474 21.9033 9.51166 22.3164 9.24017 22.6133C8.96869 22.9102 8.59076 23.0586 8.10638 23.0586C7.80365 23.0586 7.53607 22.9902 7.30365 22.8535C7.07123 22.7168 6.89252 22.5205 6.76752 22.2646C6.64252 22.0088 6.58002 21.7119 6.58002 21.374C6.58002 20.8486 6.71478 20.4385 6.98431 20.1436C7.25385 19.8486 7.63373 19.7012 8.12396 19.7012C8.59271 19.7012 8.96381 19.8525 9.23724 20.1553C9.51068 20.4561 9.6474 20.8623 9.6474 21.374ZM7.289 21.374C7.289 22.1221 7.56537 22.4961 8.1181 22.4961C8.66498 22.4961 8.93842 22.1221 8.93842 21.374C8.93842 20.6338 8.66302 20.2637 8.11224 20.2637C7.82318 20.2637 7.61322 20.3594 7.48236 20.5508C7.35345 20.7422 7.289 21.0166 7.289 21.374ZM12.0673 20.2812H11.2763V23H10.5849V20.2812H10.0517V19.959L10.5849 19.748V19.5371C10.5849 19.1543 10.6747 18.8711 10.8544 18.6875C11.0341 18.502 11.3085 18.4092 11.6777 18.4092C11.9199 18.4092 12.1581 18.4492 12.3925 18.5293L12.2109 19.0508C12.041 18.9961 11.8788 18.9688 11.7245 18.9688C11.5683 18.9688 11.454 19.0176 11.3818 19.1152C11.3115 19.2109 11.2763 19.3555 11.2763 19.5488V19.7598H12.0673V20.2812ZM13.3066 23H12.6181V19.7598H13.3066V23ZM12.5771 18.9014C12.5771 18.7783 12.6103 18.6836 12.6767 18.6172C12.7451 18.5508 12.8417 18.5176 12.9667 18.5176C13.0878 18.5176 13.1816 18.5508 13.248 18.6172C13.3163 18.6836 13.3505 18.7783 13.3505 18.9014C13.3505 19.0186 13.3163 19.1113 13.248 19.1797C13.1816 19.2461 13.0878 19.2793 12.9667 19.2793C12.8417 19.2793 12.7451 19.2461 12.6767 19.1797C12.6103 19.1113 12.5771 19.0186 12.5771 18.9014ZM14.9853 23H14.2968V18.4414H14.9853V23ZM17.3876 23.0586C16.8837 23.0586 16.4892 22.9121 16.204 22.6191C15.9208 22.3242 15.7792 21.9189 15.7792 21.4033C15.7792 20.874 15.9111 20.458 16.1747 20.1553C16.4384 19.8525 16.8007 19.7012 17.2617 19.7012C17.6894 19.7012 18.0273 19.8311 18.2753 20.0908C18.5234 20.3506 18.6474 20.708 18.6474 21.1631V21.5352H16.4882C16.498 21.8496 16.5829 22.0918 16.7431 22.2617C16.9033 22.4297 17.1288 22.5137 17.4199 22.5137C17.6113 22.5137 17.789 22.4961 17.9531 22.4609C18.1191 22.4238 18.2968 22.3633 18.4863 22.2793V22.8389C18.3183 22.9189 18.1484 22.9756 17.9765 23.0088C17.8046 23.042 17.6083 23.0586 17.3876 23.0586ZM17.2617 20.2227C17.0429 20.2227 16.8671 20.292 16.7343 20.4307C16.6035 20.5693 16.5253 20.7715 16.4999 21.0371H17.9706C17.9667 20.7695 17.9023 20.5674 17.7773 20.4307C17.6523 20.292 17.4804 20.2227 17.2617 20.2227Z" fill="#C2C2C2"/>
<g clip-path="url(#clip0)">
<path d="M9.49994 0.00100708C5.35824 0.00100708 1.99994 3.35865 1.99994 7.50068C1.99994 11.6427 5.35791 15.0003 9.49994 15.0003C13.6423 15.0003 16.9999 11.6427 16.9999 7.50068C16.9999 3.35865 13.6423 0.00100708 9.49994 0.00100708ZM9.49994 2.2435C10.8704 2.2435 11.9809 3.35436 11.9809 4.72417C11.9809 6.0943 10.8704 7.20484 9.49994 7.20484C8.13013 7.20484 7.0196 6.0943 7.0196 4.72417C7.0196 3.35436 8.13013 2.2435 9.49994 2.2435ZM9.49829 13.0395C8.13145 13.0395 6.87958 12.5417 5.914 11.7178C5.67878 11.5172 5.54305 11.223 5.54305 10.9143C5.54305 9.52508 6.66743 8.41322 8.057 8.41322H10.9435C12.3334 8.41322 13.4535 9.52508 13.4535 10.9143C13.4535 11.2233 13.3185 11.5169 13.0829 11.7175C12.1177 12.5417 10.8655 13.0395 9.49829 13.0395Z" fill="#C2C2C2"/>
</g>
<defs>
<clipPath id="clip0">
<rect width="15" height="15" fill="white" transform="translate(1.99994)"/>
</clipPath>
</defs>
</svg>
